<?xml version="1.0"?>
<svg xmlns="http://www.w3.org/2000/svg" width="540" height="496" style="vector-effect: non-scaling-stroke;">
  <!--WEB.COM-->
  <g>
    <title>Layer 1</title>
    <text stroke="#0000FF" xml:space="preserve" text-anchor="middle" font-size="48" id="svg_1" y="372" x="270" stroke-opacity="0" stroke-width="0" fill="#000000"/>
    <path stroke="transparent" transform="rotate(-161.739 277.822 202.399)" d="m397.76099,159.444c-12.21698,0 -45.00299,-10.52299 -48.29898,31.804l-247.80901,-97.77c-13.6238,-5.12199 -30.5193,-1.92059 -38.5005,7.056l-22.0551,26.606c-7.9917,8.983 -3.2931,20.853 9.8373,25.97501l248.3233,97.776c-31.55499,20.39299 -19.72598,37.50999 -13.633,44.56398c17.82901,21.15402 209.34201,21.15402 227.18103,0c17.37799,-21.13898 -77.18103,-130.80199 -113.57004,-134.33099l-1.47501,-1.67999zm-310.53949,-3.127c-44.0581,-12.85001 -32.1758,-28.418 -14.8502,-47.015c8.9457,53.541 154.2407,84.75299 205.3877,121.474c-75.752,-28.067 -115.29001,-46.061 -190.53751,-74.466l0,0.007zm226.84549,95.972c-0.45099,47.70898 141.099,44.31299 184.664,39.987c-17.25198,12.995 -260.88699,25.11499 -184.664,-39.987" id="svg_2" stroke-width="null" fill="#e01111"/>
    <text stroke="transparent" transform="rotate(-0.194455 278.001 232.82) matrix(3.73496 0 0 1.65385 -725.433 -342.002)" xml:space="preserve" text-anchor="middle" font-family="Knewave" font-size="48" id="svg_3" y="365.95349" x="268.6613" stroke-opacity="0" stroke-linecap="null" stroke-linejoin="null" stroke-dasharray="null" stroke-width="0" fill="#151547" style="font-style:normal;font-variant:normal;font-weight:normal;font-stretch:normal;font-family:Knewave;-inkscape-font-specification:Knewave">Seyon</text>
  </g>
</svg>
